<svg id="Layer_1" enable-background="new 0 0 512 512" height="512" viewBox="0 0 512 512" width="512" xmlns="http://www.w3.org/2000/svg"><g><g><g><path d="m488 376h-432v-208c0-17.673 14.327-32 32-32h368c17.673 0 32 14.327 32 32z" fill="#463c4b"/></g><g><path d="m456 376h-400v-208c0-17.673 14.327-32 32-32h336c17.673 0 32 14.327 32 32z" fill="#555a6e"/></g><g><path d="m88 416h368c17.673 0 32-14.327 32-32v-8h-432v8c0 17.673 14.327 32 32 32z" fill="#a5c3dc"/></g><g><path d="m424 416h-336c-17.673 0-32-14.327-32-32v-8h400v8c0 17.673-14.327 32-32 32z" fill="#d7e6f0"/></g><g><path d="m224 416h72v32h-72z" fill="#a5c3dc"/></g><g><path d="m224 432h48v16h-48z" fill="#d7e6f0"/></g><g><path d="m336 472h-160v-8c0-8.837 7.163-16 16-16h128c8.837 0 16 7.163 16 16z" fill="#d7e6f0"/></g><g><path d="m336 472h-48v-8c0-8.837 7.163-16 16-16h16c8.837 0 16 7.163 16 16z" fill="#a5c3dc"/></g></g><g><path d="m392 328h-272c-8.837 0-16-7.163-16-16v-256c0-8.837 7.163-16 16-16h272c8.837 0 16 7.163 16 16v256c0 8.837-7.163 16-16 16z" fill="#d7e6f0"/></g><g><path d="m168 296h200c8.837 0 16-7.163 16-16 0-8.837-7.163-16-16-16h-200c-8.837 0-16 7.163-16 16 0 8.837 7.163 16 16 16z" fill="#a5c3dc"/></g><g><path d="m312 152h-16c-4.418 0-8 3.582-8 8v104h32v-104c0-4.418-3.582-8-8-8z" fill="#ff6e91"/></g><g><path d="m360 104h-16c-4.418 0-8 3.582-8 8v152h32v-152c0-4.418-3.582-8-8-8z" fill="#e64178"/></g><g><path d="m408 72h-304v-16c0-8.837 7.163-16 16-16h272c8.837 0 16 7.163 16 16z" fill="#555a6e"/></g><g><circle cx="136" cy="56" fill="#289bc3" r="8"/></g><g><circle cx="168" cy="56" fill="#ff6e91" r="8"/></g><g><circle cx="200" cy="56" fill="#d7e6f0" r="8"/></g><g><g><circle cx="152" cy="440" fill="#d7e6f0" r="16"/></g><g><path d="m152 424v32c8.837 0 16-7.163 16-16s-7.163-16-16-16z" fill="#a5c3dc"/></g><g><path d="m168 328h-32c-61.856 0-112-50.144-112-112 0-61.856 50.144-112 112-112h32c61.856 0 112 50.144 112 112 0 61.856-50.144 112-112 112z" fill="#289bc3"/></g><g><circle cx="136" cy="216" fill="#00d2d2" r="112"/></g><g><circle cx="136" cy="216" fill="#d7e6f0" r="77.333"/></g><g><circle cx="104" cy="184" fill="#fff" r="16"/></g><g><path d="m136 328h32v16h-32z" fill="#d7e6f0"/></g><g><path d="m136 328v8h8c4.418 0 8 3.582 8 8h16v-16z" fill="#a5c3dc"/></g><g><path d="m168 440h-32c-4.418 0-8-3.582-8-8v-80c0-4.418 3.582-8 8-8h32c4.418 0 8 3.582 8 8v80c0 4.418-3.582 8-8 8z" fill="#00d2d2"/></g><g><path d="m168 440h-16v-96h16c4.418 0 8 3.582 8 8v80c0 4.418-3.582 8-8 8z" fill="#289bc3"/></g></g></g></svg>